#!OML:ASF I:\Actors\actors\Patient Classification 2\Patient 1\Session 1\actor1.ASF
:FULLY-SPECIFIED
:DEGREES
244
root -0.671562 18.7182 5.37791 5.54635 -2.05935 -5.84628
lowerback 16.4804 1.27784 -1.09713
upperback 2.66627 1.3925 -1.27867
thorax -6.3793 0.686125 -1.03814
lowerneck -19.3802 -2.56224 -2.7724
upperneck 19.8644 -3.73932 4.2918
head 9.62496 -1.44987 1.43397
rclavicle 1.43125e-014 2.38542e-014
rhumerus 10.2288 32.6077 -20.7128
rradius 96.1027
rwrist -19.0004
rhand 1.60995 -32.038
rfingers 7.12502
rthumb 27.1315 -60.108
lclavicle 1.43125e-014 2.38542e-014
lhumerus 8.84122 -15.3857 40.0114
lradius 91.3208
lwrist 29.6321
lhand 0.953345 -28.7314
lfingers 7.12502
lthumb 26.5032 -0.565065
rfemur 0.898496 5.45427 19.7353
rtibia 0
rfoot -15.9929 -14.3063
rtoes -13.7219
lfemur -14.7869 -0.75558 -7.51777
ltibia 29.2798
lfoot -20.2538 8.81122
ltoes -57.0336
245
root -0.683852 18.7194 5.37285 5.60314 -2.12967 -5.87257
lowerback 16.5197 1.15565 -1.08331
upperback 2.65683 1.23594 -1.2401
thorax -6.41268 0.609969 -0.972175
lowerneck -19.1568 -2.36246 -2.42185
upperneck 19.8589 -3.51731 4.06666
head 9.56228 -1.34929 1.33009
rclavicle 1.11319e-014 -7.95139e-015
rhumerus 9.88187 32.1477 -20.5947
rradius 96.1252
rwrist -19.174
rhand 1.75917 -32.1488
rfingers 7.12502
rthumb 27.2742 -60.1964
lclavicle 1.11319e-014 -7.95139e-015
lhumerus 8.41996 -15.2242 39.4165
lradius 91.4259
lwrist 29.777
lhand 0.907217 -28.7781
lfingers 7.12502
lthumb 26.459 -0.605093
rfemur 0.807611 5.52953 19.7992
rtibia 7.95139e-016
rfoot -16.0076 -14.3495
rtoes -13.759
lfemur -14.8214 -0.702076 -7.44654
ltibia 29.2446
lfoot -20.2472 8.8474
ltoes -57.063
246
root -0.695479 18.7194 5.3685 5.63103 -2.22734 -5.94666
lowerback 16.5998 1.0607 -1.01895
upperback 2.63807 1.12483 -1.17805
thorax -6.47723 0.554983 -0.920566
lowerneck -18.9448 -2.19998 -2.19527
upperneck 19.8306 -3.32245 3.90269
head 9.49933 -1.26354 1.2638
rclavicle -1.27222e-014 2.38542e-014
rhumerus 9.52471 31.6997 -20.4426
rradius 96.1246
rwrist -19.1996
rhand 1.91355 -32.1291
rfingers 7.12502
rthumb 27.4219 -60.1534
lclavicle -1.27222e-014 2.38542e-014
lhumerus 8.23018 -15.0607 38.8975
lradius 91.402
lwrist 29.8649
lhand 0.813706 -28.8346
lfingers 7.12502
lthumb 26.3695 -0.648166
rfemur 0.74972 5.63722 19.9159
rtibia -5.56597e-015
rfoot -15.9753 -14.4074
rtoes -13.8965
lfemur -14.8197 -0.659256 -7.32439
ltibia 29.2212
lfoot -20.2308 8.91337
ltoes -57.0967
247
root -0.704605 18.7189 5.36441 5.6356 -2.32708 -6.00014
lowerback 16.7287 0.969986 -0.950309
upperback 2.60773 1.01874 -1.12253
thorax -6.58065 0.50222 -0.880267
lowerneck -18.8589 -2.04416 -2.01001
upperneck 19.937 -3.12999 3.74975
head 9.50843 -1.17769 1.20742
rclavicle -3.57812e-015 -1.74931e-014
rhumerus 9.13379 31.2667 -20.302
rradius 96.144
rwrist -19.1609
rhand 2.14594 -32.0997
rfingers 7.12502
rthumb 27.6442 -60.0886
lclavicle -3.57812e-015 -1.74931e-014
lhumerus 8.20029 -14.8715 38.4339
lradius 91.285
lwrist 29.9066
lhand 0.754337 -28.863
lfingers 7.12502
lthumb 26.3127 -0.668074
rfemur 0.721784 5.74435 20.0025
rtibia 5.56597e-015
rfoot -15.949 -14.439
rtoes -13.9263
lfemur -14.7932 -0.681535 -7.23459
ltibia 29.2055
lfoot -20.257 9.00032
ltoes -57.0829
248
root -0.712699 18.7178 5.36156 5.61767 -2.42545 -6.01688
lowerback 16.8365 0.88181 -0.931423
upperback 2.61365 0.908236 -1.06654
thorax -6.63446 0.448533 -0.808863
lowerneck -18.817 -1.88962 -1.83017
upperneck 20.0283 -2.92612 3.55494
head 9.51994 -1.09136 1.13854
rclavicle 7.15625e-015 -9.54166e-015
rhumerus 8.83027 30.7971 -20.1328
rradius 96.2247
rwrist -19.1884
rhand 2.18067 -32.2307
rfingers 7.12502
rthumb 27.6774 -60.2143
lclavicle 7.15625e-015 -9.54166e-015
lhumerus 8.32875 -14.6069 38.0008
lradius 91.0821
lwrist 29.9238
lhand 0.720845 -28.9093
lfingers 7.12502
lthumb 26.2806 -0.709612
rfemur 0.720722 5.84579 20.0427
rtibia 6.36111e-015
rfoot -15.913 -14.4792
rtoes -13.9565
lfemur -14.745 -0.656664 -7.19069
ltibia 29.1969
lfoot -20.2677 9.03329
ltoes -57.0173
